<svg xmlns="http://www.w3.org/2000/svg" version="1.1" xmlns:xlink="http://www.w3.org/1999/xlink" xmlns:svgjs="http://svgjs.dev/svgjs" width="1440" height="560" preserveAspectRatio="none" viewBox="0 0 1440 560"><g mask="url(&quot;#SvgjsMask1003&quot;)" fill="none"><rect width="1440" height="560" x="0" y="0" fill="rgba(130, 229, 245, 1)"></rect><path d="M0,631.924C116.335,631.895,176.515,488.93,279.752,435.302C398.48,373.627,577.174,409.544,647.363,295.641C716.055,184.167,621.423,42.929,601.266,-86.449C581.395,-213.992,617.706,-364.552,529.781,-459.058C441.925,-553.489,290.711,-535.458,163.533,-556.942C51.612,-575.849,-56.94,-591.998,-169.476,-577.183C-298.922,-560.142,-454.893,-566.79,-536.407,-464.799C-618.095,-362.59,-564.176,-212.177,-565.765,-81.345C-567.132,31.234,-599.581,150.414,-545.076,248.928C-491.67,345.456,-370.104,372.018,-279.841,435.441C-184.656,502.323,-116.333,631.953,0,631.924" fill="#3dd7ef"></path><path d="M1440 897.893C1503.91 905.4259999999999 1570.992 881.864 1620.194 840.387 1667.089 800.855 1668.811 731.553 1699.982 678.73 1736.167 617.409 1821.675 576.7860000000001 1817.695 505.696 1813.772 435.617 1731.405 400.111 1681.615 350.64 1635.884 305.202 1598.336 249.18900000000002 1537.647 227.44400000000002 1475.266 205.09300000000002 1405.84 208.582 1342.89 229.27499999999998 1281.102 249.586 1236.946 298.648 1188.619 342.177 1133.3020000000001 392.002 1040.7640000000001 427.995 1039.623 502.43399999999997 1038.443 579.424 1134.563 617.686 1183.484 677.147 1218.108 719.231 1243.876 765.3530000000001 1285.183 800.9 1332.296 841.443 1378.271 890.617 1440 897.893" fill="#c7f3fb"></path></g><defs><mask id="SvgjsMask1003"><rect width="1440" height="560" fill="#ffffff"></rect></mask></defs></svg>